<?xml version="1.0" ?>
<!-- Uploaded to: SVG Repo, www.svgrepo.com, Generator: SVG Repo Mixer Tools -->
<svg width="800px" height="800px" viewBox="0 0 32 32" xmlns="http://www.w3.org/2000/svg">
<defs>
<style>.cls-1{fill:#77acf1;}.cls-2{fill:#04009a;}</style>
</defs>
<g data-name="30. Receipt" id="_30._Receipt">
<path class="cls-1" d="M19,28H13a1,1,0,0,1-1-1V25a1,1,0,0,1,1-1h6a1,1,0,0,1,1,1v2A1,1,0,0,1,19,28Zm-5-2h0Z"/>
<path class="cls-2" d="M31,24V7a3,3,0,0,0-3-3H27V3a3,3,0,0,0-3-3H8A3,3,0,0,0,5,3V4H4A3,3,0,0,0,1,7V24a1,1,0,0,0-1,1v2a5,5,0,0,0,5,5H27a5,5,0,0,0,5-5V25A1,1,0,0,0,31,24ZM28,6a1,1,0,0,1,1,1V24H27V6ZM7,3A1,1,0,0,1,8,2H24a1,1,0,0,1,1,1V24H7ZM3,7A1,1,0,0,1,4,6H5V24H3ZM30,27a3,3,0,0,1-3,3H5a3,3,0,0,1-3-3V26H30Z"/>
<path class="cls-2" d="M21,21H11a1,1,0,0,1,0-2H21a1,1,0,0,1,0,2Z"/>
<path class="cls-1" d="M18,16H14a1,1,0,0,1-1-1V13H11a1,1,0,0,1-1-1V8a1,1,0,0,1,1-1h2V5a1,1,0,0,1,1-1h4a1,1,0,0,1,1,1V7h2a1,1,0,0,1,1,1v4a1,1,0,0,1-1,1H19v2A1,1,0,0,1,18,16Zm-3-2h2V12a1,1,0,0,1,1-1h2V9H18a1,1,0,0,1-1-1V6H15V8a1,1,0,0,1-1,1H12v2h2a1,1,0,0,1,1,1Z"/>
</g>
</svg>